<svg height="511pt" viewBox="0 0 511 511.99898" width="511pt" xmlns="http://www.w3.org/2000/svg"><g fill-rule="evenodd"><path d="m206.503906 270.640625 35.355469 35.355469 104.226563-11.941406 156.410156-284.054688-284.054688 156.410156zm0 0" fill="#b5bbc9"/><path d="m224.179688 288.316406-17.675782-17.675781-39.96875 39.96875 35.355469 35.351563 39.96875-39.964844zm0 0" fill="#858fa6"/><path d="m201.890625 345.960938-35.359375-35.351563-39.964844 39.964844c15.222656 7.703125 27.652344 20.128906 35.351563 35.355469zm0 0" fill="#858fa6"/><path d="m161.921875 385.929688c-5.945313-11.753907-14.703125-21.835938-25.394531-29.367188-3.160156-2.226562-6.488282-4.230469-9.960938-5.988281-10.835937-5.484375-23.089844-8.574219-36.066406-8.574219-44.183594 0-80 35.816406-80 80s35.816406 80 80 80c44.179688 0 79.996094-35.816406 79.996094-80 0-12.976562-3.089844-25.234375-8.574219-36.070312zm-71.421875-3.929688c22.089844 0 39.996094 17.910156 39.996094 40s-17.90625 40-39.996094 40c-22.09375 0-40-17.910156-40-40s17.90625-40 40-40zm0 0" fill="#b5bbc9"/></g><path d="m90.5 372c-27.570312 0-50 22.429688-50 50 0 27.566406 22.429688 50 50 50 27.566406 0 49.996094-22.433594 49.996094-50 0-27.570312-22.429688-50-49.996094-50zm0 80c-16.542969 0-30-13.460938-30-30 0-16.542969 13.457031-30 30-30 16.539062 0 29.996094 13.457031 29.996094 30 0 16.539062-13.457032 30-29.996094 30zm0 0"/><path d="m509.570312 2.929688c-3.148437-3.148438-7.996093-3.835938-11.894531-1.691407l-53.324219 29.363281c-4.839843 2.664063-6.601562 8.746094-3.9375 13.582032 2.664063 4.839844 8.746094 6.601562 13.582032 3.9375l23.097656-12.71875-137.277344 249.304687-94.300781 10.804688-7.191406-7.195313 77.488281-77.492187c3.90625-3.902344 3.90625-10.234375 0-14.140625-3.902344-3.90625-10.234375-3.90625-14.140625 0l-77.492187 77.492187-7.191407-7.195312 10.800781-94.300781 156.128907-85.972657c4.839843-2.664062 6.601562-8.742187 3.9375-13.582031-2.664063-4.835938-8.746094-6.601562-13.582031-3.9375l-160.652344 88.460938c-2.839844 1.566406-4.746094 4.40625-5.113282 7.625l-11.542968 100.757812-37.5 37.5c0 .003906 0 .003906-.003906.003906v.003906l-35.085938 35.085938c-10.460938-4.265625-21.898438-6.625-33.875-6.625-49.625 0-90 40.375-90 90s40.375 90 90 90c7.882812 0 15.722656-1.027344 23.304688-3.058594 5.335937-1.425781 8.503906-6.90625 7.078124-12.242187-1.429687-5.335938-6.910156-8.5-12.246093-7.074219-5.894531 1.574219-12 2.375-18.136719 2.375-38.597656 0-70-31.402344-70-70s31.402344-70 70-70 70 31.402344 70 70c0 6.136719-.800781 12.238281-2.375 18.128906-1.425781 5.335938 1.742188 10.816406 7.078125 12.246094 5.335937 1.425781 10.816406-1.746094 12.242187-7.082031 2.027344-7.574219 3.054688-15.414063 3.054688-23.292969 0-11.980469-2.359375-23.414062-6.625-33.878906l35.085938-35.085938c.003906 0 .003906-.003906.003906-.003906l37.5-37.5 100.761718-11.542969c3.21875-.367187 6.058594-2.273437 7.621094-5.113281l156.410156-284.050781c2.148438-3.898438 1.457032-8.75-1.6875-11.894531zm-307.679687 328.890624-21.214844-21.210937 25.828125-25.828125 21.210938 21.214844zm-59.273437 16.847657 23.917968-23.917969 21.210938 21.214844-23.917969 23.914062c-5.839844-8.195312-13.015625-15.371094-21.210937-21.210937zm0 0"/><path d="m414.140625 68.660156c1.398437 0 2.828125-.296875 4.183594-.921875l.003906-.003906c5.015625-2.316406 7.199219-8.253906 4.886719-13.269531s-8.257813-7.203125-13.273438-4.886719c-5.015625 2.3125-7.203125 8.253906-4.886718 13.269531 1.6875 3.65625 5.304687 5.8125 9.085937 5.8125zm0 0"/><path d="m140 471.492188-.003906.003906c-3.90625 3.90625-3.902344 10.234375 0 14.140625 1.953125 1.953125 4.511718 2.929687 7.070312 2.929687s5.121094-.976562 7.074219-2.929687c3.90625-3.90625 3.90625-10.238281 0-14.144531-3.902344-3.90625-10.234375-3.90625-14.140625 0zm0 0"/></svg>