<svg viewBox="1 -6 511.999 511" xmlns="http://www.w3.org/2000/svg"><path d="m54.464844 324.503906c-10.742188-10.742187-28.164063-10.742187-38.910156 0-10.742188 10.746094-10.742188 28.167969 0 38.910156 10.746093 10.746094 28.167968 10.746094 38.910156 0 10.746094-10.742187 10.746094-28.164062 0-38.910156zm0 0" fill="#fbe067"/><path d="m31.601562 340.546875c-7.886718 7.882813-9.976562 19.359375-6.289062 29.160156-3.554688-1.335937-6.890625-3.429687-9.753906-6.289062-10.746094-10.746094-10.746094-28.167969 0-38.910157 10.746094-10.746093 28.167968-10.746093 38.910156 0 2.863281 2.859376 4.953125 6.195313 6.289062 9.75-9.796874-3.6875-21.273437-1.59375-29.15625 6.289063zm0 0" fill="#e7ce5f"/><path d="m116.640625 223.425781 38.910156 38.910157-101.078125 101.078124-38.910156-38.910156zm0 0" fill="#e15f76"/><path d="m15.558594 324.503906 101.078125-101.078125 16.039062 16.042969-101.078125 101.078125zm0 0" fill="#cb556a"/><path d="m118.179688 260.796875c-28.675782-28.679687-28.675782-75.171875 0-103.851563l48.242187-48.238281c.925781-.925781 2.425781-.925781 3.351563 0 .832031.832031.9375 2.15625.226562 3.09375-21.929688 29.085938-47.753906 64.464844-36.597656 97.015625l229.019531-199.558594c2.046875-1.785156 5.128906-1.679687 7.054687.242188 1.921876 1.921875 2.027344 5.007812.242188 7.054688l-199.5625 229.019531c32.554688 11.15625 67.933594-14.667969 97.015625-36.597657.941406-.710937 2.265625-.605468 3.097656.226563.925781.925781.925781 2.425781 0 3.351563l-48.242187 48.242187c-28.675782 28.675781-75.167969 28.675781-103.847656 0zm0 0" fill="#dfe0e0"/><path d="m118.179688 260.796875c-28.675782-28.679687-28.675782-75.171875 0-103.851563l48.242187-48.238281c.925781-.925781 2.425781-.925781 3.351563 0 .832031.832031.9375 2.15625.226562 3.09375-21.929688 29.085938-47.753906 64.464844-36.597656 97.015625l229.019531-199.558594c2.046875-1.785156 5.128906-1.679687 7.054687.242188zm0 0" fill="#c9caca"/><path d="m496.4375 136.46875c-10.746094-10.746094-28.167969-10.746094-38.910156 0-10.746094 10.746094-10.746094 28.164062 0 38.910156 10.742187 10.746094 28.164062 10.746094 38.910156 0 10.742188-10.746094 10.742188-28.164062 0-38.910156zm0 0" fill="#fbe067"/><path d="m473.570312 152.507812c7.886719-7.882812 19.363282-9.976562 29.160157-6.289062-1.335938-3.554688-3.429688-6.890625-6.289063-9.75-10.746094-10.746094-28.164062-10.746094-38.910156 0-10.746094 10.742188-10.746094 28.164062 0 38.910156 2.859375 2.859375 6.195312 4.953125 9.75 6.289063-3.683594-9.796875-1.59375-21.277344 6.289062-29.160157zm0 0" fill="#e7ce5f"/><path d="m457.527344 136.464844 38.910156 38.910156-101.078125 101.078125-38.910156-38.910156zm0 0" fill="#e15f76"/><path d="m356.449219 237.546875 101.078125-101.078125 16.039062 16.042969-101.078125 101.078125zm0 0" fill="#cb556a"/><path d="m393.820312 239.089844c-28.679687-28.675782-75.171874-28.675782-103.847656 0l-48.242187 48.242187c-.925781.925781-.925781 2.425781 0 3.351563.832031.832031 2.15625.9375 3.09375.226562 29.085937-21.929687 64.464843-47.753906 97.019531-36.597656l-199.5625 229.019531c-1.785156 2.046875-1.679688 5.128907.242188 7.054688 1.921874 1.921875 5.003906 2.027343 7.054687.242187l229.019531-199.5625c11.15625 32.554688-14.667968 67.933594-36.597656 97.015625-.710938.941407-.605469 2.265625.226562 3.097657.925782.925781 2.425782.925781 3.351563 0l48.242187-48.242188c28.675782-28.675781 28.675782-75.171875 0-103.847656zm0 0" fill="#dfe0e0"/><path d="m393.820312 239.089844c-28.679687-28.675782-75.171874-28.675782-103.847656 0l-48.242187 48.242187c-.925781.925781-.925781 2.425781 0 3.351563.832031.832031 2.15625.9375 3.09375.226562 29.085937-21.933594 64.464843-47.753906 97.019531-36.597656l-199.5625 229.015625c-1.785156 2.050781-1.679688 5.132813.242188 7.054687zm0 0" fill="#c9caca"/><path d="m170.105469 289.800781c21.617187 0 41.941406-8.417969 57.226562-23.703125l48.238281-48.238281c1.867188-1.863281 2.894532-4.34375 2.894532-6.980469 0-2.636718-1.027344-5.113281-2.890625-6.980468-3.464844-3.457032-9.015625-3.851563-12.917969-.910157-22.210938 16.75-51.542969 38.878907-78.285156 37.6875l191-219.191406c4.359375-5.003906 4.097656-12.597656-.59375-17.285156-4.6875-4.691407-12.285156-4.953125-17.285156-.59375l-143.800782 125.300781c-3.121094 2.722656-3.449218 7.460938-.726562 10.582031 2.71875 3.125 7.460937 3.449219 10.582031.730469l118.261719-103.050781-177.304688 203.476562c-1.640625 1.882813-2.238281 4.460938-1.589844 6.871094.644532 2.410156 2.449219 4.34375 4.8125 5.152344 20.355469 6.976562 41.175782 1.351562 60.480469-8.65625l-11.480469 11.480469c-25.707031 25.703124-67.535156 25.703124-93.242187 0-12.453125-12.453126-19.3125-29.011719-19.3125-46.621094 0-17.613282 6.859375-34.167969 19.3125-46.621094l11.480469-11.480469c-10.011719 19.308594-15.632813 40.125-8.65625 60.480469.808594 2.359375 2.742187 4.164062 5.152344 4.8125 2.410156.644531 4.984374.050781 6.867187-1.589844l65.328125-56.925781c3.125-2.722656 3.449219-7.457031.730469-10.582031-2.722657-3.125-7.460938-3.449219-10.582031-.726563l-55.503907 48.363281c-1.191406-26.722656 20.9375-56.070312 37.6875-78.28125 2.941407-3.902343 2.550781-9.457031-.914062-12.917968-3.847657-3.847656-10.105469-3.847656-13.957031 0l-48.238282 48.242187c-15.285156 15.285157-23.703125 35.609375-23.703125 57.226563 0 9.292968 1.5625 18.34375 4.550781 26.859375l-83.46875 83.472656c-.007812.007813-.015624.015625-.019531.019531-6.601562 6.613282-10.238281 15.398438-10.238281 24.738282 0 9.355468 3.640625 18.148437 10.257812 24.761718 6.824219 6.824219 15.789063 10.238282 24.757813 10.238282 8.957031 0 17.914063-3.410157 24.738281-10.222657.007813-.003906.011719-.011719.019532-.015625l83.472656-83.472656c8.515625 2.988281 17.566406 4.550781 26.859375 4.550781zm-149.242188 68.3125c-3.78125-3.777343-5.863281-8.804687-5.863281-14.152343 0-2.730469.550781-5.375 1.585938-7.816407l26.234374 26.234375c-7.285156 3.074219-16.03125 1.664063-21.957031-4.265625zm33.605469-5.300781-28.304688-28.304688 5.417969-5.417968 36.976563 19.632812zm25.183594-25.183594-36.976563-19.632812 11.355469-11.355469 36.980469 19.628906zm22.453125-22.453125-36.980469-19.628906 11.359375-11.359375 36.976563 19.628906zm22.449219-22.449219-36.980469-19.632812 12.910156-12.90625c3.410156 5.730469 7.554687 11.074219 12.394531 15.910156 4.835938 4.835938 10.179688 8.984375 15.910156 12.394532zm0 0"/><path d="m501.742188 131.164062c-13.640626-13.644531-35.84375-13.648437-49.496094-.019531-.007813.007813-.011719.011719-.019532.019531l-83.472656 83.472657c-8.515625-2.988281-17.566406-4.554688-26.859375-4.554688-21.617187 0-41.941406 8.417969-57.230469 23.703125l-48.234374 48.238282c-1.867188 1.867187-2.894532 4.34375-2.894532 6.980468 0 2.636719 1.027344 5.117188 2.890625 6.980469 3.460938 3.460937 9.011719 3.855469 12.917969.910156 22.210938-16.746093 51.574219-38.890625 78.28125-37.6875l-94.417969 108.359375c-2.722656 3.121094-2.398437 7.859375.726563 10.582032 3.121094 2.722656 7.859375 2.394531 10.582031-.726563l102.980469-118.183594c1.640625-1.882812 2.234375-4.460937 1.589844-6.871093-.644532-2.410157-2.449219-4.34375-4.8125-5.152344-20.359376-6.976563-41.175782-1.351563-60.484376 8.660156l11.484376-11.484375c25.703124-25.703125 67.535156-25.703125 93.242187 0 25.707031 25.707031 25.707031 67.535156 0 93.242187l-11.484375 11.480469c10.011719-19.304687 15.636719-40.125 8.660156-60.480469-.808594-2.363281-2.742187-4.167968-5.152344-4.8125-2.410156-.648437-4.984374-.050781-6.867187 1.589844l-203.480469 177.304688 55.746094-63.972656c2.71875-3.121094 2.394531-7.859376-.730469-10.582032-3.121093-2.722656-7.859375-2.394531-10.578125.726563l-78 89.515625c-4.359375 5-4.097656 12.59375.59375 17.285156 2.453125 2.457031 5.707032 3.699219 8.964844 3.699219 2.964844 0 5.9375-1.03125 8.316406-3.105469l219.195313-191c1.191406 26.722656-20.9375 56.074219-37.6875 78.28125-2.941407 3.902344-2.550781 9.457031.914062 12.921875 3.847657 3.847656 10.109375 3.84375 13.957031-.003906l48.238282-48.238281c15.285156-15.285157 23.703125-35.609376 23.703125-57.226563 0-9.292969-1.5625-18.34375-4.550781-26.863281l83.46875-83.46875c.007812-.007813.015624-.015625.019531-.023438 6.601562-6.609375 10.238281-15.394531 10.238281-24.738281 0-9.351563-3.640625-18.144531-10.257812-24.757813zm-90.226563 118.53125c-3.410156-5.726562-7.554687-11.070312-12.394531-15.90625-4.835938-4.839843-10.179688-8.984374-15.90625-12.394531l12.90625-12.910156 19.628906 36.980469zm15.328125-15.324218-19.632812-36.980469 11.359374-11.355469 19.628907 36.976563zm22.449219-22.453125-19.628907-36.980469 11.355469-11.355469 19.628907 36.976563zm22.453125-22.449219-19.632813-36.980469 5.417969-5.414062 28.304688 28.304687zm23.667968-25.726562-26.234374-26.234376c7.28125-3.078124 16.03125-1.664062 21.957031 4.261719 3.78125 3.78125 5.863281 8.808594 5.863281 14.152344 0 2.734375-.550781 5.378906-1.585938 7.820313zm0 0"/></svg>