<svg height="512" viewBox="0 0 50 60" width="512" xmlns="http://www.w3.org/2000/svg"><g id="002---Samurai" fill="none"><g id="Icons" transform="translate(1)"><path id="Shape" d="m31 31.56v6.44l-7.26 11.72c-1.906-3.32-.519-.909-6.74-11.72v-5.84c2.11 2.57 2.47 4.84 5.18 4.84h3.12c3.024 0 3.316-3.056 5.7-5.44z" fill="#dfc49c"/><path id="Shape" d="m33.88 22.43c0 3 .78 5.57-2.34 8.57-2.989 2.84-3.129 6-6.24 6h-3.12c-3.138 0-3.285-3.243-6.24-6-3.12-3-2.34-5.57-2.34-8.57-.0334707-1.1544416-.1774618-2.3030217-.43-3.43h21.14c-.2525382 1.1269783-.3965293 2.2755584-.43 3.43z" fill="#ffe0b2"/><path id="Shape" d="m33.88 22.43c0 3 .78 5.57-2.34 8.57-2.989 2.84-3.129 6-6.24 6h-3c3.115 0 3.2-3.11 6.24-6 3.12-3 2.34-5.57 2.34-8.57.0334707-1.1544416.1774618-2.3030217.43-3.43h3c-.2525382 1.1269783-.3965293 2.2755584-.43 3.43z" fill="#dfc49c"/><path id="Shape" d="m42 27h-3.22c-.4595536-.0003552-.8597072-.3138776-.97-.76l-1.81-7.24h-24l-1.81 7.24c-.1102928.4461224-.51044635.7596448-.97.76h-3.22c-.31774227-.0012509-.61597969-.1534314-.80345436-.4099757-.18747466-.2565442-.24187152-.5869159-.14654564-.8900243.032-.1 4.277-13.981 4.4-14.31.7817505-2.30285623 2.1095993-4.38212331 3.87-6.06-.1952783-1.09969308-.3022862-2.21324366-.32-3.33-.0076474-.36841734.1991129-.70781629.53-.87.27-.171.285-.13 2.51-.13.5272287-.00427546.9660699.4038469 1 .93.01.24.04.47.06.7 2.1425026-1.07098909 4.5047267-1.62902173 6.9-1.63 2.3963714-.00851112 4.7607618.55003329 6.9 1.63.02-.23.05-.46.06-.7.036823-.52477544.4739358-.93129033 1-.93h2.04c.5522847 0 1 .44771525 1 1-.0177138 1.11675634-.1247217 2.23030692-.32 3.33h.01c1.8794671 1.79854693 3.2639489 4.05091295 4.02 6.54 3.06 9.889 1.927 6.526 4.24 13.83.0953259.3031084.040929.6334801-.1465456.8900243-.1874747.2565443-.4857121.4087248-.8034544.4099757z" fill="#c81e1e"/><path id="Shape" d="m42 27h-3.22c-.4595536-.0003552-.8597072-.3138776-.97-.76l-1.06-4.24h5.07l1.13 3.7c.0981213.3032448.0448752.6351505-.1431775.8924857-.1880526.2573352-.4881011.4088853-.8068225.4075143z" fill="#c81e1e"/><path id="Shape" d="m39 27h-.22c-.4595536-.0003552-.8597072-.3138776-.97-.76l-1.06-4.24h2.07l1.13 3.7c.0981213.3032448.0448752.6351505-.1431775.8924857-.1880526.2573352-.4881011.4088853-.8068225.4075143z" fill="#f44335"/><path id="Shape" d="m11.25 22-1.06 4.24c-.1102928.4461224-.51044635.7596448-.97.76h-3.22c-.31872139.001371-.61876987-.1501791-.80682252-.4075143s-.24129879-.5892409-.14317748-.8924857l1.13-3.7z" fill="#f44335"/><path id="Shape" d="m40.28 17h-4.78l-.5-2c.2174232-.7142308.5819009-1.3750596 1.07-1.94.6603425-.7707981 1.5174619-1.3479713 2.48-1.67.103.274.032.063 1.73 5.61z" fill="#c81e1e"/><path id="Shape" d="m37.28 17h-1.78l-.5-2c.2174232-.7142308.5819009-1.3750596 1.07-1.94z" fill="#f44335"/><path id="Shape" d="m13 15-.5 2h-4.78c1.7-5.547 1.659-5.422 1.73-5.61 1.6952548.5620422 3.0164469 1.9055643 3.55 3.61z" fill="#f44335"/><path id="Shape" d="m36 19h-24l1-4h22z" fill="#c81e1e"/><path id="Shape" d="m35 2c-.04 3.19-.97 12.9-10.85 12.99 1.2467476-.060748 2.3249899-.8886088 2.7056614-2.0773725s-.0161129-2.4889644-.9956614-3.2626275c1.96-.65 4.8-2.48 5.1-7.72.0192854-.33721978.2124277-.64018815.51-.8.299-.171.316-.13 2.53-.13.5522847 0 1 .44771525 1 1z" fill="#fec108"/><path id="Shape" d="m32 2c-.04 2.49-.6 8.93-5.52 11.7.8909171-1.3028976.6198925-3.0733004-.62-4.05 1.96-.65 4.8-2.48 5.1-7.72.0192854-.33721978.2124277-.64018815.51-.8.3308871.16218371.5376474.50158266.53.87z" fill="#ffdc00"/><path id="Shape" d="m24 15c-10.02 0-10.96-9.79-11-13 0-.55228475.4477153-1 1-1h2.04c.5260642-.00129033.963177.40522456 1 .93.3 5.24 3.14 7.07 5.1 7.72-.9990361.7927661-1.3876409 2.1305177-.9688325 3.3351548.4188084 1.2046372 1.553471 2.0128043 2.8288325 2.0148452z" fill="#ffdc00"/><circle id="Oval" cx="24" cy="12" fill="#ffeb3a" r="3"/><path id="Shape" d="m13 39.62 8.5 13.73-3.5 5.65h-14c-1.10320187-.0032948-1.9967052-.8967981-2-2 0-9.674-.125-10.016.39-11.76-1.18167201-1.3875704-1.9904303-3.0532683-2.35-4.84-.12012909-.5885099.03059854-1.19985.41052753-1.6650692s.94882707-.7350534 1.54947247-.7349308h11z" fill="#37474f"/><path id="Shape" d="m46 57c-.0032948 1.1032019-.8967981 1.9967052-2 2h-3c1.1032019-.0032948 1.9967052-.8967981 2-2 0-9.632.013-9.246-.03-9.8 1.0073608-.4615623 1.9067197-1.1292681 2.64-1.96.553 1.873.39 2.771.39 11.76z" fill="#37474f"/><path id="Shape" d="m39 47.57v.43c1.3655121.0224379 2.7197487-.2504562 3.97-.8.047.608.03.107.03 9.8-.0032948 1.1032019-.8967981 1.9967052-2 2h-18l12-19.38v-1.62h8c.6006454-.0001226 1.1695435.2697116 1.5494725.7349308s.5306566 1.0765593.4105275 1.6650692c-.706 3.327-2.699 6.154-5.96 7.17z" fill="#37474f"/><path id="Shape" d="m13 39.62 8.5 13.73-3.5 5.65h-14c-1.10320187-.0032948-1.9967052-.8967981-2-2 0-9.674-.125-10.016.39-11.76-1.18167201-1.3875704-1.9904303-3.0532683-2.35-4.84-.12012909-.5885099.03059854-1.19985.41052753-1.6650692s.94882707-.7350534 1.54947247-.7349308h11z" fill="#607d8b"/><path id="Shape" d="m39 47.57v.43c1.3655121.0224379 2.7197487-.2504562 3.97-.8.047.608.03.107.03 9.8-.0032948 1.1032019-.8967981 1.9967052-2 2h-18l12-19.38v-1.62h8c.6006454-.0001226 1.1695435.2697116 1.5494725.7349308s.5306566 1.0765593.4105275 1.6650692c-.706 3.327-2.699 6.154-5.96 7.17z" fill="#607d8b"/><path id="Shape" d="m23.74 49.72c-.8 1.293-.273.439-2.24 3.63l-8.5-13.73v-1.62h4c6.291 10.932 4.86 8.443 6.74 11.72z" fill="#707070"/><path id="Shape" d="m35 38v1.62l-12 19.38h-5c4.854-7.836 1.473-2.391 13-21z" fill="#9e9e9e"/><g fill="#f44335"><path id="Shape" d="m9 38v10c-4.962 0-8.016-3.152-8.96-7.6-.12012909-.5885099.03059854-1.19985.41052753-1.6650692s.94882707-.7350534 1.54947247-.7349308z"/><path id="Rectangle-path" d="m9 38h4v21h-4z"/><path id="Rectangle-path" d="m35 38h4v21h-4z"/></g><path id="Shape" d="m47.96 40.4c-.943 4.44-3.969 7.6-8.96 7.6v-.43c3.26-1.016 5.254-3.843 5.96-7.17.1201291-.5885099-.0305985-1.19985-.4105275-1.6650692s-.9488271-.7350534-1.5494725-.7349308h3c.6006454-.0001226 1.1695435.2697116 1.5494725.7349308s.5306566 1.0765593.4105275 1.6650692z" fill="#c81e1e"/><path id="Shape" d="m44.96 40.4c-.706 3.327-2.7 6.154-5.96 7.17v-9.57h4c.6006454-.0001226 1.1695435.2697116 1.5494725.7349308s.5306566 1.0765593.4105275 1.6650692z" fill="#c81e1e"/><path id="Shape" d="m44.96 40.4c-.706 3.327-2.7 6.154-5.96 7.17v-9.57h4c.6006454-.0001226 1.1695435.2697116 1.5494725.7349308s.5306566 1.0765593.4105275 1.6650692z" fill="#f44335"/></g><path id="Shape" d="m2.314 45.5c-.444 1.863-.314 2.185-.314 11.5 0 1.6568542 1.34314575 3 3 3h40c1.6568542 0 3-1.3431458 3-3 0-9.588.106-9.736-.314-11.5 1.1059446-1.4432839 1.8747453-3.1158525 2.25-4.895.1817707-.8828223-.043024-1.8005892-.6122128-2.4994739-.5691889-.6988848-1.4224463-1.1048163-2.3237872-1.1055261h-14v-4.76c.159-.173.313-.346.493-.519 4.139-3.98 2.13-7.134 2.836-11.283l1.51 6.04c.2176412.894855 1.0200609 1.5240579 1.941 1.522h3.22c.6348653-.0012902 1.231411-.3039251 1.6074208-.8154641.3760098-.5115391.4868185-1.1712178.2985792-1.7775359 0 0-4.353-14.191-4.406-14.339-.7843977-2.27409945-2.0650142-4.34515256-3.749-6.063.1519668-.98871144.2351665-1.98677359.249-2.987.0048021-.53354485-.2037897-1.04688913-.5793842-1.42586398-.3755945-.37897486-.8870493-.59215763-1.4206158-.59213602h-2.04c-.8008715.00077317-1.5240586.47922562-1.838 1.216-3.9345437-1.54802755-8.3094563-1.54802755-12.244 0-.3139414-.73677438-1.0371285-1.21522683-1.838-1.216h-2.04c-.5326931-.00001125-1.043381.21248602-1.4188297.59037514s-.5846328.88994304-.5811703 1.42262486c.0149451 1.00029019.0991465 1.99834454.252 2.987-1.6864472 1.71801907-2.9682627 3.79072028-3.752 6.067 0 0-.489 1.98-4.4 14.321-.19534477.6077549-.08882583 1.2722502.28669664 1.7884948.37552248.5162446.97492736.8222088 1.61330336.8235052h3.22c.9192253.0025194 1.7208098-.6242866 1.94-1.517l1.511-6.045c.709 4.162-1.3 7.308 2.836 11.283.18.173.333.346.493.519v4.76h-13.995c-.90114319-.0004843-1.75477199.4041393-2.32489258 1.1020087-.57012058.6978695-.79633621 1.6150548-.61610742 2.4979913.37454896 1.780903 1.14338222 3.455251 2.25 4.9zm1.686 11.5c0-10.33-.023-8.942.057-9.822 1.44577979 1.0478407 3.16062971 1.6612039 4.943 1.768v9.054h-4c-.55228475 0-1-.4477153-1-1zm9-18v19h-2v-19zm4.422 0 6.156 10.7-1.078 1.748c-8.293-13.393-7.5-11.968-7.5-12.448zm6.018-1c4.373 0 5.307.442 7.56-3.06v2.775l-6.226 10.058-5.774-10.04v-2.793c1.024 1.591 2.031 3.06 4.44 3.06zm11.56 1c0 .48 1.282-1.734-11.557 19h-2.643l11.757-19zm4 0v19h-2v-19zm-4 19h-9.2l9.2-14.866zm-20 0v-14.865l6.323 10.213-2.88 4.652zm31-1c0 .5522847-.4477153 1-1 1h-4v-9.054c1.7823703-.1067961 3.4972202-.7201593 4.943-1.768.081.899.057-.444.057 9.822zm1.979-16.809c-.406 1.926-1.879 6.253-6.979 6.758v-7.949h6c.2982267.0007722.5805457.1346105.7699209.3649945.1893753.2303839.2660416.5332684.2090791.8260055zm-38.522-22.191h2.762l-.749 3h-2.933zm1.6-5.221c.8667247.520991 1.535238 1.3158181 1.9 2.259l-.238.962h-2.649zm3.224 5.221.5-2h20.438l.5 2zm8.719-6c0-1.1045695.8954305-2 2-2s2 .8954305 2 2-.8954305 2-2 2-2-.8954305-2-2zm15.943.778.988 3.222h-2.65l-.241-.963c.3642658-.9443845 1.034197-1.7396418 1.903-2.259zm-1.162 5.222h2.764l.921 3h-2.935zm2 8-.749-3h3.048l.92 3zm-1.525-15.134c-1.3064365.6843518-2.3447594 1.7881862-2.948 3.134h-3.415c2.1451527-1.6498365 3.6707931-3.975293 4.33-6.6.8374199 1.05388961 1.5218419 2.22073984 2.033 3.466zm-3.256-8.872c-.038 3.021-.807 9.37-6.256 11.373.4194275-1.0922619.3174304-2.3162262-.277-3.324 1.933-1.034 4.218-3.268 4.493-8.049zm-4.2 1.257c-.549 3.2-2.265 4.645-3.832 5.29-1.2150682-.72110008-2.7269318-.72110008-3.942 0-1.564-.641-3.28-2.091-3.826-5.29 3.7017236-1.59722244 7.8982764-1.59722244 11.6 0zm-13.758-1.257c.274 4.791 2.56 7.015 4.491 8.049-.5950069 1.0075903-.6970264 2.2318236-.277 3.324-5.449-2.003-6.218-8.367-6.256-11.373zm1.065 12.006h-3.415c-.6033831-1.3459678-1.6416364-2.4500804-2.948-3.135.5102163-1.24541833 1.1947171-2.41206636 2.033-3.465.6592069 2.624707 2.1848473 4.9501635 4.33 6.6zm-11.1 12 .918-3h3.045l-.75 3zm8.619-6h18.75c-.808 4.657 1.148 7-2.269 10.279-3.112 2.993-3.161 5.721-5.547 5.721-4.275 0-4.224.434-5.962-2.271-.7546429-1.2566965-1.6614972-2.4154548-2.7-3.45-3.415-3.279-1.467-5.636-2.273-10.279zm-12.621 19 5.995-.0000029v7.9490029c-5.1-.5-6.573-4.832-6.979-6.758-.05712949-.2935961.02016119-.5973502.21066918-.8279345.19050799-.2305844.47422895-.3637865.77333082-.3630655z" fill="#000"/></g></svg>