<?xml version="1.0" encoding="iso-8859-1"?>
<!-- Generator: Adobe Illustrator 18.1.1, SVG Export Plug-In . SVG Version: 6.00 Build 0)  -->
<svg version="1.1" id="Capa_1" xmlns="http://www.w3.org/2000/svg" xmlns:xlink="http://www.w3.org/1999/xlink" x="0px" y="0px"
	 viewBox="0 0 33.192 33.192" style="enable-background:new 0 0 33.192 33.192;" xml:space="preserve">
<g>
	<path style="fill:#030104;" d="M31.802,32.153c-4.046-1.609-7.638-5.072-8.233-9.551c-0.033-0.249,0.164-0.59,0.42-0.757
		c0.154-0.101,0.309-0.201,0.467-0.304c0.811-0.504,1.568-1.19,2.342-1.829c0.727-0.726,1.473-1.425,2.102-2.254
		c2.627-3.467,4.531-8.01,4.268-12.455c-0.061-1.026-0.236-2.047-0.546-3.048c-0.058-0.209-0.109-0.391-0.152-0.543
		c-0.084-0.3-0.243-0.31-0.356-0.024c-0.057,0.145-0.125,0.319-0.205,0.519c-0.115,0.324-0.293,0.706-0.53,1.125
		c-1.435,2.524-5.435,7.506-8.929,6.581c-0.846-0.224-1.383-1.532-1.9-2.181c-1.523-1.913-3.406-3.574-5.515-4.816
		c-3.738-2.201-8.871-3.36-13.118-2.049C1.708,0.625,1.526,0.676,1.374,0.719C1.031,0.815,0.832,0.87,0.832,0.87
		s0.377,0.149,1.037,0.41c0.324,0.117,0.706,0.294,1.125,0.531c1.831,1.04,3.429,2.304,4.657,4.042
		c1.04,1.473,3.147,4.526,1.043,5.833c-4.992,3.101-8.935,9.485-8.682,15.496c0.015,0.359,0.03,0.705,0.044,1.038
		c0.012,0.651,0.112,1.243,0.198,1.755c0.069,0.51,0.165,0.943,0.275,1.297c0.058,0.209,0.109,0.391,0.152,0.543
		c0.084,0.301,0.243,0.311,0.356,0.024c0.057-0.146,0.126-0.319,0.205-0.519c0.117-0.324,0.294-0.707,0.532-1.125
		c0.221-0.42,0.461-0.881,0.804-1.344c1.118-1.51,2.474-2.874,4.093-3.844c0.855-0.514,3.88-2.198,4.675-0.979
		c3.096,4.75,7.824,8.033,13.441,8.955c0.422,0.069,0.832,0.123,1.241,0.133c0.384,0.021,0.757,0.041,1.117,0.061
		c0.359-0.016,0.705-0.029,1.039-0.044c0.65-0.013,1.242-0.112,1.754-0.198c0.51-0.068,0.943-0.165,1.297-0.275
		c0.209-0.058,0.392-0.108,0.543-0.151C32.075,32.425,32.086,32.267,31.802,32.153z M16.572,19.865
		c-1.739,0-3.147-1.371-3.234-3.088c-0.003-0.055-0.016-0.108-0.016-0.164c0-1.796,1.456-3.251,3.25-3.251
		c1.74,0,3.148,1.37,3.236,3.088c0.002,0.055,0.016,0.108,0.016,0.164C19.824,18.41,18.369,19.865,16.572,19.865z"/>
</g>
<g>
</g>
<g>
</g>
<g>
</g>
<g>
</g>
<g>
</g>
<g>
</g>
<g>
</g>
<g>
</g>
<g>
</g>
<g>
</g>
<g>
</g>
<g>
</g>
<g>
</g>
<g>
</g>
<g>
</g>
</svg>
